<svg id="Layer_1" data-name="Layer 1" xmlns="http://www.w3.org/2000/svg" viewBox="0 0 200 200"><g id="ZFyvTH.tif"><path d="M168.2,145.79V193H32.7V57.64H83.9v2.3q0,36,0,72c0,8.57,1.49,16.86,5.64,24.45,6.16,11.26,15.9,17.56,28.36,19.78a48.3,48.3,0,0,0,25.66-2c12.7-4.73,20.31-14.1,24-26.9.15-.52.27-1.05.41-1.58Z"/><path d="M111.65,57.64h31.44v1.89q0,34.14,0,68.28A32.26,32.26,0,0,1,140.86,140c-4.62,11.41-19.76,11.27-25,3.72a24.8,24.8,0,0,1-4.1-13.38c-.17-3.6-.1-7.21-.1-10.81q0-29.75,0-59.5Z"/><path d="M117,28.61c0,4.3-.1,8.51,0,12.72.07,2,.89,2.61,2.94,2.69,1,0,1.73.13,1.26,1.51H107.89c-.37-.85-.37-1.38.84-1.52,2.61-.3,3.34-1.07,3.35-3.68q.06-13.51,0-27c0-2.63-.77-3.31-3.35-3.73-.45-.07-.82-.64-1.23-1l.33-.46h8.4c2.59,0,5.19-.18,7.77-.05,5.24.26,9,3.47,9.76,8.2.85,5.14-1.48,9.06-6.6,11.15-.15.06-.3.15-.57.28.2.4.36.79.57,1.15,2.3,3.81,4.62,7.61,6.9,11.42,1.49,2.49,3.32,4.41,6.51,4.38.3,0,.61.45.91.69-.31.17-.6.47-.91.5-5.06.52-9.36-.47-12-5.51-1.54-3-3.64-5.7-5.21-8.69C122,29,119.9,28.21,117,28.61Zm-.13-10.51h0c0,2.31-.06,4.62,0,6.92,0,.45.68,1.23,1.07,1.24a22.59,22.59,0,0,0,5.52-.25c4.09-.91,6.2-4.45,5.38-8.56-1.05-5.3-4.64-7.77-10.52-7.35-1.12.09-1.59.4-1.53,1.6C116.9,13.83,116.83,16,116.83,18.1Z"/><path d="M173,8.12H185.8c.48,1.07.14,1.35-1,1.55a7.48,7.48,0,0,0-3.84,1.4c-4.32,4.18-8.45,8.57-12.71,13,4.28,5,8.44,9.9,12.61,14.77.84,1,1.7,2,2.6,2.89a7.06,7.06,0,0,0,4.71,2.38c.45,0,.86.63,1.29,1l-.3.5h-9.43c-1.64-2.2-3-4.3-4.64-6.21-3.3-3.91-6.72-7.73-10.17-11.69-1.68,1.37-3.15,2.6-2.9,5.1s.06,5.18.16,7.76c.12,2.81.66,3.26,3.37,3.6.46.06.86.61,1.29.94l-.3.5h-13.4c-.4-1.06-.05-1.43,1-1.53,2.28-.2,3.17-1,3.19-3.31q.09-13.87,0-27.73c0-2.47-.78-3-4.27-3.51V8.13h13.39c.47,1.18,0,1.56-1.13,1.48-1.64-.11-2.94.55-3,2.25-.12,5.09,0,10.18,0,15.51,4.44-5,8.83-9.92,13.1-14.91,1.34-1.56.9-2.33-1.12-2.9C173.88,9.45,173.61,8.83,173,8.12Z"/><path d="M75.41,7.37c8.82-.44,19.75,7,19.75,19.54A19.49,19.49,0,0,1,75.27,46.33C64,46.31,55.59,38,55.62,27.05A19.55,19.55,0,0,1,75.41,7.37ZM60.53,25.7l.42.11a20.34,20.34,0,0,0,3.51,12.13c5.63,8.42,17.81,8.51,22.81.2,4.26-7.07,3.16-18.15-2.4-24.21a13.4,13.4,0,0,0-22.2,3.52C61.55,20,61.22,22.94,60.53,25.7Z"/><path d="M36.59,45.55H23.53c-.4-1.07-.1-1.46,1-1.53,2.63-.18,3.25-.84,3.29-3.44s0-5.18,0-7.77a3.85,3.85,0,0,0-.51-1.73c-3.29-6-6.63-11.9-9.94-17.85-1.2-2.17-2.54-4.09-5.43-3.59C11.52,8.52,11.63,8,12.85,8q5.66.08,11.31,0c1.12,0,1.23.47.95,1.45L24,9.63a1.66,1.66,0,0,0-1.49,2.43,12.56,12.56,0,0,0,.93,2.16q3.7,6.75,7.43,13.46a8.56,8.56,0,0,0,.55.68c2.81-5.52,5.6-10.84,8.23-16.23.92-1.89.4-2.35-2.45-2.62a1.25,1.25,0,0,1-.2-.38c0-.32,0-.64,0-1H47.3c.31,1,.15,1.58-1,1.5a3.62,3.62,0,0,0-3.61,2.28C39.45,18,36.19,24,33,30c0,4.18-.13,8.37.07,12.54,0,.52,1.6,1.19,2.55,1.39S37,44.44,36.59,45.55Z"/></g></svg>